<svg width="1110" height="664" viewBox="0 0 1110 664" fill="none" xmlns="http://www.w3.org/2000/svg">
<path d="M821.448 113.231C495.626 -9.44158 136.877 48 43.0172 204" stroke="#D36DCD" stroke-width="4" stroke-miterlimit="10"/>
<path d="M33.5522 211L9.64465 222.061L17.8777 249.316L41.7852 238.255L33.5522 211Z" fill="#178EFD"/>
<path d="M904.899 86.8085L878.253 115.312L900.263 123L874.15 126.943L878.959 160.351L863.3 132.903L846.033 152L853.872 128.702L819.351 133.793L852.966 117.505L833.747 92.9799L861.265 107.743L872.519 80L872.519 106.767L904.899 86.8085Z" fill="#FF5F2F"/>
<path d="M736.531 611C396.553 646 -125.144 482 72.2176 217.743C269.58 -46.5137 1075.59 99.635 1038.38 394.192C1001.18 688.749 318.416 584.903 173.377 469.706" stroke="#178EFD" stroke-width="4" stroke-miterlimit="10"/>
<path d="M162.285 482.265L134.253 446.468L185.51 447.846L164.79 459.737L162.285 482.265Z" fill="#FF5F2F"/>
<path d="M769.02 613.46C770.89 601.223 767.758 590.301 762.026 589.066C756.293 587.832 750.13 596.751 748.26 608.989C746.39 621.226 749.521 632.148 755.254 633.382C760.986 634.617 767.15 625.698 769.02 613.46Z" fill="#D36DCD"/>
<path d="M1056.28 283.33C1085.39 328.129 1087.83 423.871 1052.75 473.807" stroke="#FF5F2F" stroke-width="4"/>
<path d="M1050.43 504.153C1055.21 501.123 1054.5 490.566 1048.83 480.574C1043.17 470.581 1034.7 464.936 1029.91 467.966C1025.13 470.996 1025.85 481.552 1031.51 491.545C1037.18 501.538 1045.65 507.182 1050.43 504.153Z" fill="#178EFD"/>
<path d="M1052.8 277.734L1047.73 256.243L1032.95 251.883L1020.62 260.976L1035.68 281.944L1052.8 277.734Z" fill="#D36DCD"/>
</svg>
